<?xml version="1.0" encoding="UTF-8" standalone="no"?>
<!-- Created with Inkscape (http://www.inkscape.org/) -->

<svg
   width="50"
   height="25"
   viewBox="0 0 13.229166 6.6145833"
   version="1.1"
   id="svg5"
   inkscape:version="1.2.2 (732a01da63, 2022-12-09)"
   sodipodi:docname="arrow-mainsite.svg"
   xmlns:inkscape="http://www.inkscape.org/namespaces/inkscape"
   xmlns:sodipodi="http://sodipodi.sourceforge.net/DTD/sodipodi-0.dtd"
   xmlns="http://www.w3.org/2000/svg"
   xmlns:svg="http://www.w3.org/2000/svg">
  <sodipodi:namedview
     id="namedview7"
     pagecolor="#505050"
     bordercolor="#ffffff"
     borderopacity="1"
     inkscape:showpageshadow="0"
     inkscape:pageopacity="0"
     inkscape:pagecheckerboard="1"
     inkscape:deskcolor="#505050"
     inkscape:document-units="mm"
     showgrid="false"
     showguides="true"
     inkscape:zoom="16"
     inkscape:cx="28.46875"
     inkscape:cy="8.875"
     inkscape:window-width="3440"
     inkscape:window-height="1377"
     inkscape:window-x="1912"
     inkscape:window-y="-8"
     inkscape:window-maximized="1"
     inkscape:current-layer="layer1">
    <sodipodi:guide
       position="9.4119692,5.7238193"
       orientation="1,0"
       id="guide1180"
       inkscape:locked="false" />
  </sodipodi:namedview>
  <defs
     id="defs2" />
  <g
     inkscape:label="Layer 1"
     inkscape:groupmode="layer"
     id="layer1">
    <path
       id="rect792"
       style="display:inline;stroke-width:0.370417;stroke-linejoin:round;paint-order:fill markers stroke"
       d="M 3.9827026 0.14211019 C 3.9598392 0.1423746 3.9357161 0.1441906 3.9093221 0.1477946 C 3.6896039 0.14357354 0.70730789 2.8037783 0.48214111 2.9884481 C 0.012749583 3.3734182 0.47904053 3.6865967 0.47904053 3.6865967 C 0.47904053 3.6865967 3.5913677 6.4652384 3.924825 6.4652384 C 4.2582895 6.4652384 4.2674398 6.1598307 4.2674398 6.1598307 L 4.2720907 4.7438965 L 12.720154 4.7438965 C 12.899758 4.7438965 13.044165 4.5994891 13.044165 4.4198853 L 13.044165 2.2334554 C 13.044165 2.0538516 12.899758 1.9094442 12.720154 1.9094442 L 4.2813924 1.9094442 L 4.2860433 0.48834229 L 4.2860433 0.48679199 C 4.2860433 0.48679199 4.325662 0.13814319 3.9827026 0.14211019 z M 5.5753703 2.1962484 C 5.6967255 2.1962484 5.8037801 2.3009575 5.8037801 2.4194906 C 5.8037801 2.5464902 5.7023699 2.6535848 5.5753703 2.6535848 C 5.454015 2.6535848 5.3464437 2.5436679 5.3464437 2.4194906 C 5.3464437 2.3037797 5.454015 2.1962484 5.5753703 2.1962484 z M 10.042798 2.1962484 C 10.164153 2.1962484 10.271208 2.3009575 10.271208 2.4194906 C 10.271208 2.5464902 10.169798 2.6535848 10.042798 2.6535848 C 9.9214424 2.6535848 9.814388 2.5436679 9.814388 2.4194906 C 9.814388 2.3037797 9.9214424 2.1962484 10.042798 2.1962484 z M 9.0211548 2.2809977 C 9.1791987 2.2809973 9.5740926 2.3401961 9.5740926 2.563151 C 9.5740926 2.6732167 9.5006677 2.7719238 9.3849569 2.7719238 C 9.2692462 2.7719238 9.19323 2.6871745 9.009786 2.6871745 C 8.8884308 2.6871745 8.7782756 2.7239892 8.7782756 2.8509888 C 8.7782756 3.1049881 9.678479 3.1192545 9.678479 3.7486084 C 9.678479 4.1239633 9.3515507 4.3583903 8.9761963 4.3583903 C 8.7588857 4.3583903 8.2899333 4.3074187 8.2899333 4.0421305 C 8.2899333 3.932064 8.3633582 3.841626 8.479069 3.841626 C 8.6399352 3.841626 8.7020431 3.9516968 8.9560425 3.9516968 C 9.1394864 3.9516968 9.2495646 3.8922644 9.2495646 3.7821981 C 9.2495646 3.451999 8.3157715 3.5028404 8.3157715 2.83962 C 8.3157715 2.5037765 8.6458002 2.2809977 9.0211548 2.2809977 z M 1.7823201 2.2980509 C 1.7869128 2.2978289 1.7916028 2.2980509 1.7962728 2.2980509 C 1.9373834 2.2980509 2.0473816 2.3995396 2.0784261 2.5011393 L 2.4112223 3.6189006 L 2.4169067 3.6189006 L 2.7502197 2.5011393 C 2.7812642 2.3995396 2.8912624 2.2980509 3.032373 2.2980509 C 3.1819505 2.2980509 3.2919088 2.4134923 3.308842 2.515092 L 3.5713582 4.0901896 C 3.5741776 4.1071236 3.5744588 4.1241377 3.5744588 4.1382487 C 3.5744588 4.2624259 3.4837422 4.3413371 3.3708537 4.3413371 C 3.2269202 4.3413371 3.1704681 4.2760605 3.1507121 4.1434163 L 2.984314 2.995166 L 2.9786296 2.995166 L 2.6401489 4.1775228 C 2.6203934 4.245256 2.5667225 4.3413371 2.4143229 4.3413371 C 2.2619241 4.3413371 2.2082529 4.2452557 2.1884969 4.1775228 L 1.8500163 2.995166 L 1.8443319 2.995166 L 1.6779338 4.1434163 C 1.6581783 4.2760609 1.6017251 4.3413371 1.4577922 4.3413371 C 1.3449032 4.3413371 1.254187 4.2624261 1.254187 4.1382487 C 1.254187 4.1241377 1.2544676 4.1071226 1.2572876 4.0901896 L 1.5198039 2.515092 C 1.5362081 2.4166673 1.6398601 2.304934 1.7823201 2.2980509 z M 10.852568 2.3543783 C 10.971102 2.3543786 11.056173 2.444738 11.056173 2.5802043 L 11.056173 2.8230835 L 11.208101 2.8230835 C 11.312521 2.8230835 11.402922 2.8710286 11.402922 3.0008504 C 11.402922 3.1278502 11.312523 3.1786174 11.208101 3.1786174 L 11.056173 3.1786174 L 11.056173 3.8473104 C 11.056173 3.957377 11.095605 3.96875 11.154875 3.96875 C 11.185918 3.96875 11.227818 3.949113 11.275798 3.949113 C 11.363288 3.949113 11.422559 4.0279827 11.422559 4.1098267 C 11.422559 4.2622263 11.273483 4.3382365 11.056173 4.3382365 C 10.841684 4.3382365 10.649479 4.2225494 10.649479 3.940328 L 10.649479 3.1786174 L 10.576099 3.1786174 C 10.466032 3.1786174 10.398332 3.1109168 10.398332 3.0008504 C 10.398332 2.8992506 10.474499 2.8230835 10.576099 2.8230835 L 10.649479 2.8230835 L 10.649479 2.5802043 C 10.649479 2.4447384 10.734035 2.3543783 10.852568 2.3543783 z M 4.3961141 2.7889771 C 4.4035232 2.7888582 4.4106782 2.7889771 4.4178182 2.7889771 C 4.8467947 2.7889771 5.1459391 2.9779306 5.1459391 3.389974 L 5.1459391 4.0757202 C 5.1459391 4.1801422 5.1463685 4.3413371 4.9516357 4.3413371 C 4.8331028 4.3413371 4.7850376 4.2764988 4.7568156 4.1692546 C 4.6523936 4.2934322 4.5000933 4.3583903 4.2602051 4.3583903 C 4.0062057 4.3583903 3.7351725 4.236619 3.7351725 3.8979533 C 3.7351725 3.6467762 3.9044906 3.438033 4.3532227 3.438033 L 4.7397624 3.438033 C 4.7397624 3.2150785 4.6243166 3.1305583 4.4126506 3.1305583 C 4.167118 3.1305583 4.1501669 3.2406291 3.9723674 3.2406291 C 3.8623015 3.2406291 3.8168213 3.1303973 3.8168213 3.0711304 C 3.8168213 2.8551433 4.1664322 2.792667 4.3961141 2.7889771 z M 6.7680623 2.7889771 C 6.7739231 2.788867 6.7801491 2.7889771 6.7861491 2.7889771 C 7.1050593 2.7889771 7.3416707 2.992437 7.3416707 3.3367472 L 7.3416707 4.1155111 C 7.3416707 4.2509779 7.2571153 4.3413371 7.1385824 4.3413371 C 7.0200502 4.3413371 6.935494 4.2509774 6.935494 4.1155111 L 6.935494 3.4070272 C 6.935494 3.2179389 6.8171489 3.1274577 6.6703939 3.1274577 C 6.5038825 3.1274577 6.4104614 3.2489832 6.4104614 3.4070272 L 6.4104614 4.1155111 C 6.4104614 4.2509779 6.325906 4.3413371 6.207373 4.3413371 C 6.0888408 4.3413371 6.0042847 4.2509774 6.0042847 4.1155111 L 6.0042847 3.0318563 C 6.0042847 2.8963904 6.08884 2.8060303 6.207373 2.8060303 C 6.3117953 2.8060303 6.3792972 2.8622424 6.3934082 2.9553752 C 6.4699608 2.848748 6.5863941 2.7923918 6.7680623 2.7889771 z M 12.176518 2.7889771 C 12.616783 2.7889771 12.907222 3.189801 12.907222 3.5284668 C 12.907222 3.6498214 12.853632 3.7088175 12.729456 3.7088175 L 11.862842 3.7088175 C 11.891064 3.9091954 12.057709 4.0023397 12.246798 4.0023397 C 12.455641 4.0023397 12.599474 3.8390422 12.706718 3.8390422 C 12.794213 3.8390422 12.873633 3.9262196 12.873633 4.0137085 C 12.873633 4.1886857 12.512084 4.3583903 12.210107 4.3583903 C 11.752909 4.3583903 11.448397 4.025258 11.448397 3.5765259 C 11.448397 3.1644826 11.747541 2.7889771 12.176518 2.7889771 z M 5.5640015 2.8060303 C 5.5676404 2.8058555 5.5716703 2.8060303 5.5753703 2.8060303 C 5.6939025 2.8060303 5.7784587 2.89639 5.7784587 3.0318563 L 5.7784587 4.1155111 C 5.7784587 4.2509779 5.6939032 4.3413371 5.5753703 4.3413371 C 5.4568372 4.3413371 5.3717651 4.2509774 5.3717651 4.1155111 L 5.3717651 3.0318563 C 5.3717651 2.9006234 5.4512713 2.8114603 5.5640015 2.8060303 z M 10.031946 2.8060303 C 10.035596 2.8058555 10.039098 2.8060303 10.042798 2.8060303 C 10.161336 2.8060303 10.245886 2.89639 10.245886 3.0318563 L 10.245886 4.1155111 C 10.245886 4.2509779 10.161331 4.3413371 10.042798 4.3413371 C 9.9242654 4.3413371 9.8397095 4.2509774 9.8397095 4.1155111 L 9.8397095 3.0318563 C 9.8397095 2.9006234 9.9192152 2.8114603 10.031946 2.8060303 z M 12.176518 3.1274577 C 11.995896 3.1274579 11.874324 3.2658782 11.854574 3.438033 L 12.501046 3.438033 C 12.478468 3.2602335 12.365606 3.1274577 12.176518 3.1274577 z M 4.3780273 3.6922811 C 4.2288781 3.6966892 4.1413493 3.7691056 4.1413493 3.8757324 C 4.1413493 4.0027328 4.2458999 4.0478149 4.3785441 4.0478149 C 4.5732769 4.0478149 4.7397624 3.9349915 4.7397624 3.6922811 L 4.3924967 3.6922811 C 4.3875577 3.6922811 4.3828373 3.6921389 4.3780273 3.6922811 z " />
  </g>
</svg>
