<?xml version="1.0" encoding="UTF-8" standalone="no"?>
<!-- Created with Inkscape (http://www.inkscape.org/) -->

<svg
   width="50"
   height="25"
   viewBox="0 0 13.229166 6.6145833"
   version="1.1"
   id="svg5"
   inkscape:version="1.2.2 (732a01da63, 2022-12-09)"
   sodipodi:docname="arrow-map.svg"
   xmlns:inkscape="http://www.inkscape.org/namespaces/inkscape"
   xmlns:sodipodi="http://sodipodi.sourceforge.net/DTD/sodipodi-0.dtd"
   xmlns="http://www.w3.org/2000/svg"
   xmlns:svg="http://www.w3.org/2000/svg">
  <sodipodi:namedview
     id="namedview7"
     pagecolor="#505050"
     bordercolor="#ffffff"
     borderopacity="1"
     inkscape:showpageshadow="0"
     inkscape:pageopacity="0"
     inkscape:pagecheckerboard="1"
     inkscape:deskcolor="#505050"
     inkscape:document-units="mm"
     showgrid="false"
     showguides="true"
     inkscape:zoom="16"
     inkscape:cx="28.46875"
     inkscape:cy="8.875"
     inkscape:window-width="3440"
     inkscape:window-height="1377"
     inkscape:window-x="1912"
     inkscape:window-y="-8"
     inkscape:window-maximized="1"
     inkscape:current-layer="layer1">
    <sodipodi:guide
       position="9.4119692,5.7238193"
       orientation="1,0"
       id="guide1180"
       inkscape:locked="false" />
  </sodipodi:namedview>
  <defs
     id="defs2" />
  <g
     inkscape:label="Layer 1"
     inkscape:groupmode="layer"
     id="layer1">
    <path
       id="rect792"
       style="display:inline;stroke-width:0.370417;stroke-linejoin:round;paint-order:fill markers stroke"
       d="M 9.334314 0.14211019 C 8.9913546 0.13814319 9.0309733 0.48679199 9.0309733 0.48679199 L 9.0309733 0.48834229 L 9.0356242 1.9094442 L 0.59686279 1.9094442 C 0.41725896 1.9094442 0.27285156 2.0538516 0.27285156 2.2334554 L 0.27285156 4.4198853 C 0.27285156 4.5994891 0.41725896 4.7438965 0.59686279 4.7438965 L 9.0449259 4.7438965 L 9.0495768 6.1598307 C 9.0495768 6.1598307 9.0587271 6.4652384 9.3921916 6.4652384 C 9.7256489 6.4652384 12.837976 3.6865967 12.837976 3.6865967 C 12.837976 3.6865967 13.304267 3.3734182 12.834875 2.9884481 C 12.609709 2.8037783 9.6274127 0.14357354 9.4076945 0.1477946 C 9.3813005 0.1441906 9.3571774 0.1423746 9.334314 0.14211019 z M 2.4597982 2.1962484 C 2.5811535 2.1962484 2.6887248 2.3009576 2.6887248 2.4194906 C 2.6887248 2.5464901 2.586798 2.6535848 2.4597982 2.6535848 C 2.338443 2.6535848 2.2313883 2.5436679 2.2313883 2.4194906 C 2.2313883 2.3037798 2.338443 2.1962484 2.4597982 2.1962484 z M 1.4381551 2.2809977 C 1.5961992 2.2809977 1.9916097 2.3401962 1.9916097 2.563151 C 1.9916097 2.6732171 1.9181846 2.7719238 1.802474 2.7719238 C 1.6867632 2.7719238 1.6102302 2.6871745 1.4267863 2.6871745 C 1.3054311 2.6871745 1.1957926 2.7239891 1.1957926 2.8509888 C 1.1957926 3.104988 2.0959961 3.1192545 2.0959961 3.7486084 C 2.0959961 4.1239632 1.7685511 4.3583903 1.3931966 4.3583903 C 1.1758861 4.3583903 0.70745036 4.3074188 0.70745036 4.0421305 C 0.70745036 3.9320641 0.78087532 3.841626 0.8965861 3.841626 C 1.0574523 3.841626 1.1195601 3.9516968 1.3735596 3.9516968 C 1.5570035 3.9516968 1.6670817 3.8922645 1.6670817 3.7821981 C 1.6670817 3.451999 0.73277181 3.5028404 0.73277181 2.83962 C 0.73277181 2.5037764 1.0628006 2.2809977 1.4381551 2.2809977 z M 6.7045003 2.2980509 C 6.7090958 2.2978289 6.7137787 2.2980509 6.718453 2.2980509 C 6.8595636 2.2980509 6.9700788 2.3995396 7.001123 2.5011393 L 7.3339193 3.6189006 L 7.3396037 3.6189006 L 7.6723999 2.5011393 C 7.7034443 2.3995396 7.8134426 2.2980509 7.9545532 2.2980509 C 8.1041306 2.2980509 8.2146056 2.4134923 8.2315389 2.515092 L 8.4940552 4.0901896 C 8.4968752 4.1071236 8.496639 4.1241377 8.496639 4.1382487 C 8.496639 4.2624263 8.4064392 4.3413371 8.2935506 4.3413371 C 8.1496178 4.3413371 8.093165 4.2760605 8.073409 4.1434163 L 7.9070109 2.995166 L 7.9013265 2.995166 L 7.5623291 4.1775228 C 7.5425735 4.2452563 7.4889026 4.3413371 7.3365031 4.3413371 C 7.1841037 4.3413371 7.1309488 4.2452556 7.1111938 4.1775228 L 6.7721965 2.995166 L 6.766512 2.995166 L 6.6001139 4.1434163 C 6.5803586 4.2760605 6.5239053 4.3413371 6.3799723 4.3413371 C 6.2670836 4.3413371 6.176884 4.2624262 6.176884 4.1382487 C 6.176884 4.1241377 6.1766478 4.1071226 6.1794678 4.0901896 L 6.441984 2.515092 C 6.4583882 2.4166673 6.5620403 2.3049341 6.7045003 2.2980509 z M 3.2700846 2.3543783 C 3.3886172 2.3543783 3.473173 2.4447379 3.473173 2.5802043 L 3.473173 2.8230835 L 3.6256185 2.8230835 C 3.7300405 2.8230835 3.8204386 2.8710287 3.8204386 3.0008504 C 3.8204386 3.12785 3.7300405 3.1786174 3.6256185 3.1786174 L 3.473173 3.1786174 L 3.473173 3.8473104 C 3.473173 3.9573767 3.5126082 3.96875 3.571875 3.96875 C 3.6029194 3.96875 3.6453368 3.949113 3.6933146 3.949113 C 3.7808029 3.949113 3.8400757 4.0279827 3.8400757 4.1098267 C 3.8400757 4.2622261 3.6904836 4.3382365 3.473173 4.3382365 C 3.2586847 4.3382365 3.0664795 4.2225494 3.0664795 3.940328 L 3.0664795 3.1786174 L 2.993099 3.1786174 C 2.8830324 3.1786174 2.815332 3.1109168 2.815332 3.0008504 C 2.815332 2.8992507 2.8914993 2.8230835 2.993099 2.8230835 L 3.0664795 2.8230835 L 3.0664795 2.5802043 C 3.0664795 2.4447379 3.1515518 2.3543783 3.2700846 2.3543783 z M 4.5935181 2.7889771 C 5.0337835 2.7889771 5.3242228 3.189801 5.3242228 3.5284668 C 5.3242228 3.6498217 5.2706334 3.7088175 5.1464559 3.7088175 L 4.2803589 3.7088175 C 4.3085811 3.909195 4.4752265 4.0023397 4.6643148 4.0023397 C 4.8731587 4.0023397 5.0169909 3.8390422 5.124235 3.8390422 C 5.2117238 3.8390422 5.2906331 3.9262197 5.2906331 4.0137085 C 5.2906331 4.1886857 4.9296014 4.3583903 4.6276245 4.3583903 C 4.1704258 4.3583903 3.8653971 4.0252579 3.8653971 3.5765259 C 3.8653971 3.1644825 4.1645415 2.7889771 4.5935181 2.7889771 z M 9.318811 2.7889771 C 9.3262201 2.7888581 9.3333714 2.7889771 9.3405151 2.7889771 C 9.7694918 2.7889771 10.068636 2.9779306 10.068636 3.389974 L 10.068636 4.0757202 C 10.068636 4.1801422 10.068549 4.3413371 9.8738159 4.3413371 C 9.755283 4.3413371 9.7072176 4.2764988 9.6789958 4.1692546 C 9.5745738 4.2934319 9.4222734 4.3583903 9.1823853 4.3583903 C 8.9283859 4.3583903 8.6573527 4.2366189 8.6573527 3.8979533 C 8.6573527 3.6467761 8.8266708 3.438033 9.2754028 3.438033 L 9.6624593 3.438033 C 9.6624593 3.2150786 9.5464968 3.1305583 9.3348307 3.1305583 C 9.0892982 3.1305583 9.0723469 3.2406291 8.8945475 3.2406291 C 8.7844806 3.2406291 8.7395182 3.1303972 8.7395182 3.0711304 C 8.7395182 2.8551431 9.0891294 2.7926642 9.318811 2.7889771 z M 11.07891 2.7889771 C 11.083681 2.7888558 11.0881 2.7889771 11.092863 2.7889771 C 11.530307 2.7889771 11.747603 3.1984691 11.747603 3.5935791 C 11.747603 3.9774002 11.488132 4.3583903 11.07891 4.3583903 C 10.95191 4.3583903 10.813567 4.3099297 10.706323 4.2167969 L 10.706323 4.7139242 C 10.706323 4.8493904 10.621768 4.9397502 10.503235 4.9397502 C 10.384705 4.9397502 10.300146 4.8493903 10.300146 4.7139242 L 10.300146 3.0318563 C 10.300146 2.8963899 10.384702 2.8060303 10.503235 2.8060303 C 10.616125 2.8060303 10.680923 2.867768 10.706323 2.9750122 C 10.780142 2.8547155 10.931014 2.7927362 11.07891 2.7889771 z M 2.4489461 2.8060303 C 2.4525826 2.8058553 2.456094 2.8060303 2.4597982 2.8060303 C 2.5783309 2.8060303 2.6628866 2.8963899 2.6628866 3.0318563 L 2.6628866 4.1155111 C 2.6628866 4.2509773 2.5783313 4.3413371 2.4597982 4.3413371 C 2.3412656 4.3413371 2.2567098 4.2509773 2.2567098 4.1155111 L 2.2567098 3.0318563 C 2.2567098 2.9006232 2.3362159 2.8114556 2.4489461 2.8060303 z M 4.5935181 3.1274577 C 4.4128963 3.1274577 4.2913299 3.265878 4.2715739 3.438033 L 4.9180461 3.438033 C 4.8954684 3.2602335 4.7826065 3.1274577 4.5935181 3.1274577 z M 11.025167 3.1615641 C 10.807856 3.1615641 10.706323 3.3645015 10.706323 3.5620565 C 10.706323 3.7596115 10.802211 3.9858032 11.025167 3.9858032 C 11.236833 3.9858032 11.341427 3.7656142 11.341427 3.5765259 C 11.341427 3.3846153 11.236833 3.1615641 11.025167 3.1615641 z M 9.3007243 3.6922811 C 9.1515757 3.6966892 9.0640462 3.7691056 9.0640462 3.8757324 C 9.0640462 4.0027326 9.168597 4.0478149 9.301241 4.0478149 C 9.4959739 4.0478149 9.6624593 3.9349914 9.6624593 3.6922811 L 9.3151937 3.6922811 C 9.3102548 3.6922811 9.3055355 3.6921389 9.3007243 3.6922811 z " />
  </g>
</svg>
